<svg width="1787" height="2223" viewBox="0 0 1787 2223" fill="none" xmlns="http://www.w3.org/2000/svg">
    <path d="M63.9998 364C239.666 156 755.9 -183 1415.5 125C1441 175.5 1497.5 321.5 1519.5 501.5C1289.3 349.842 771.178 182.648 285.515 501.5C215.01 814.333 231.5 1563.2 861.5 2056C852.833 2065.83 814.6 2097.5 731 2145.5C478.833 2003.5 -20.0002 1526.3 1.99977 753.5C0.999775 681.833 11.9998 503.6 63.9998 364Z" fill="#FFD600"/>
    <path d="M1.99977 753.5C0.999775 681.833 11.9998 503.6 63.9998 364C239.666 156 755.9 -183 1415.5 125C1441 175.5 1497.5 321.5 1519.5 501.5C1289.3 349.842 771.178 182.648 285.515 501.5M1.99977 753.5C93.5374 647.624 188.884 564.941 285.515 501.5M1.99977 753.5C-20.0002 1526.3 478.833 2003.5 731 2145.5C814.6 2097.5 852.833 2065.83 861.5 2056C231.5 1563.2 215.01 814.333 285.515 501.5" stroke="black"/>
    <path d="M896.968 703V957.022C1136.38 935.543 1402.3 1028.27 1505.34 1077.32C1383.97 1655.17 933.211 2028.18 723 2142.46L834.836 2223C1553.9 1841.35 1769.22 1219.99 1787 957.022C1479.66 753.804 1065.59 703 896.968 703Z" fill="#FFD600"/>
    <path d="M900.5 1031.5V953.5C997.3 891.1 1358.17 979.5 1526.5 1031.5L1492 1143.5C1298.8 1053.5 1017.17 1031.33 900.5 1031.5Z" fill="#FFD600"/>
    <path d="M1300.46 453.615C905.404 309.325 509.327 444.084 360.669 529.499C258.167 1239.95 653.402 1809.82 863.832 2005.94C947.417 1918.4 1009.37 1830.16 1029.9 1796.99C706.999 1295.49 676.864 837.985 702.16 671.92C1005.71 607.253 1249.86 682.734 1334 728.558C1326.52 587.787 1308.52 486.608 1300.46 453.615Z" fill="white"/>
    <path d="M1112.58 1098.61C959.453 1078.14 793.895 1090.08 730.257 1098.61C730.257 1149.39 755.844 1207.68 768.637 1230.48C863.897 1203.31 1017.94 1219.16 1083.06 1230.48L1112.58 1098.61Z" fill="white"/>
    <path d="M1096.34 1170.92C943.215 1150.45 777.658 1162.39 714.02 1170.92C714.02 1221.7 739.606 1279.99 752.399 1302.79C847.66 1275.63 1001.7 1291.47 1066.82 1302.79L1096.34 1170.92Z" fill="white"/>
</svg>
